<svg width="355" height="32" viewBox="0 0 355 32" fill="none" xmlns="http://www.w3.org/2000/svg">
<path d="M8.00004 25.3333H12V17.3333H20V25.3333H24V13.3333L16 7.33333L8.00004 13.3333V25.3333ZM5.33337 28V12L16 4L26.6667 12V28H17.3334V20H14.6667V28H5.33337Z" fill="black"/>
<path d="M132 14C134.387 14 136.676 14.9482 138.364 16.636C140.052 18.3239 141 20.6131 141 23C141 25.3869 140.052 27.6761 138.364 29.364C136.676 31.0518 134.387 32 132 32C129.613 32 127.324 31.0518 125.636 29.364C123.948 27.6761 123 25.3869 123 23C123 20.6131 123.948 18.3239 125.636 16.636C127.324 14.9482 129.613 14 132 14ZM132 18C131.735 18 131.48 18.1054 131.293 18.2929C131.105 18.4804 131 18.7348 131 19V22H128C127.735 22 127.48 22.1054 127.293 22.2929C127.105 22.4804 127 22.7348 127 23C127 23.2652 127.105 23.5196 127.293 23.7071C127.48 23.8946 127.735 24 128 24H131V27C131 27.2652 131.105 27.5196 131.293 27.7071C131.48 27.8946 131.735 28 132 28C132.265 28 132.52 27.8946 132.707 27.7071C132.895 27.5196 133 27.2652 133 27V24H136C136.265 24 136.52 23.8946 136.707 23.7071C136.895 23.5196 137 23.2652 137 23C137 22.7348 136.895 22.4804 136.707 22.2929C136.52 22.1054 136.265 22 136 22H133V19C133 18.7348 132.895 18.4804 132.707 18.2929C132.52 18.1054 132.265 18 132 18ZM123.516 16C123.007 16.617 122.567 17.2876 122.204 18H114C113.47 18 112.961 18.2107 112.586 18.5858C112.211 18.9609 112 19.4696 112 20C112 21.016 112.608 21.984 113.864 22.75C115.12 23.516 116.932 24 119 24C119.712 24 120.394 23.936 121.034 23.83C121.083 24.51 121.192 25.168 121.36 25.804C120.58 25.9359 119.791 26.0014 119 26C116.65 26 114.46 25.456 112.822 24.46C111.182 23.46 110 21.93 110 20C110 18.9391 110.421 17.9217 111.172 17.1716C111.922 16.4214 112.939 16 114 16H123.516ZM119 3C120.459 3 121.858 3.57946 122.889 4.61091C123.921 5.64236 124.5 7.04131 124.5 8.5C124.5 9.95869 123.921 11.3576 122.889 12.3891C121.858 13.4205 120.459 14 119 14C117.541 14 116.142 13.4205 115.111 12.3891C114.079 11.3576 113.5 9.95869 113.5 8.5C113.5 7.04131 114.079 5.64236 115.111 4.61091C116.142 3.57946 117.541 3 119 3ZM132.462 5.018C133.571 5.13183 134.599 5.65285 135.346 6.48033C136.093 7.30782 136.507 8.383 136.508 9.498L136.484 9.958C136.384 10.938 135.968 11.824 135.34 12.518C134.269 12.1771 133.152 12.0024 132.028 12C132.69 11.9931 133.322 11.7245 133.786 11.2529C134.251 10.7813 134.509 10.145 134.506 9.48314C134.503 8.82129 134.237 8.18773 133.768 7.72095C133.299 7.25417 132.664 6.99214 132.002 6.99214C131.34 6.99214 130.705 7.25417 130.236 7.72095C129.767 8.18773 129.501 8.82129 129.498 9.48314C129.495 10.145 129.753 10.7813 130.218 11.2529C130.682 11.7245 131.314 11.9931 131.976 12C130.852 12.0018 129.735 12.1758 128.664 12.516C128.02 11.8065 127.62 10.9093 127.524 9.956L127.5 9.5C127.499 8.90838 127.616 8.32246 127.842 7.77577C128.068 7.22908 128.4 6.73236 128.818 6.31402C129.236 5.89568 129.733 5.56394 130.28 5.33778C130.826 5.11161 131.412 4.99547 132.004 4.996L132.462 5.018ZM119 5C118.072 5 117.182 5.36875 116.525 6.02513C115.869 6.6815 115.5 7.57174 115.5 8.5C115.5 9.42826 115.869 10.3185 116.525 10.9749C117.182 11.6313 118.072 12 119 12C119.928 12 120.818 11.6313 121.475 10.9749C122.131 10.3185 122.5 9.42826 122.5 8.5C122.5 7.57174 122.131 6.6815 121.475 6.02513C120.818 5.36875 119.928 5 119 5Z" fill="black"/>
<path d="M235.333 12V4.66667L242.667 12M226 2.66667C224.52 2.66667 223.333 3.85334 223.333 5.33334V26.6667C223.333 27.3739 223.614 28.0522 224.114 28.5523C224.614 29.0524 225.293 29.3333 226 29.3333H242C242.707 29.3333 243.385 29.0524 243.886 28.5523C244.386 28.0522 244.667 27.3739 244.667 26.6667V10.6667L236.667 2.66667H226Z" fill="#7EB941"/>
<path d="M336.056 11.9437C334.685 10.5729 334 8.925 334 7C334 5.075 334.685 3.42708 336.056 2.05625C337.427 0.685417 339.075 0 341 0C342.925 0 344.573 0.685417 345.944 2.05625C347.315 3.42708 348 5.075 348 7C348 8.925 347.315 10.5729 345.944 11.9437C344.573 13.3146 342.925 14 341 14C339.075 14 337.427 13.3146 336.056 11.9437ZM327 28V23.1C327 22.1083 327.256 21.1972 327.767 20.3665C328.278 19.5358 328.955 18.9012 329.8 18.4625C331.608 17.5583 333.446 16.8805 335.312 16.429C337.179 15.9775 339.075 15.7512 341 15.75C342.925 15.7488 344.821 15.9752 346.687 16.429C348.554 16.8828 350.392 17.5607 352.2 18.4625C353.046 18.9 353.724 19.5347 354.235 20.3665C354.746 21.1983 355.001 22.1095 355 23.1V28H327ZM330.5 24.5H351.5V23.1C351.5 22.7792 351.42 22.4875 351.26 22.225C351.1 21.9625 350.889 21.7583 350.625 21.6125C349.05 20.825 347.46 20.2347 345.856 19.8415C344.252 19.4483 342.633 19.2512 341 19.25C339.367 19.2488 337.748 19.446 336.144 19.8415C334.54 20.237 332.95 20.8273 331.375 21.6125C331.112 21.7583 330.901 21.9625 330.74 22.225C330.579 22.4875 330.499 22.7792 330.5 23.1V24.5ZM343.473 9.47275C344.158 8.78675 344.5 7.9625 344.5 7C344.5 6.0375 344.158 5.21383 343.473 4.529C342.788 3.84417 341.964 3.50117 341 3.5C340.036 3.49883 339.213 3.84183 338.529 4.529C337.845 5.21617 337.502 6.03983 337.5 7C337.498 7.96017 337.841 8.78442 338.529 9.47275C339.217 10.1611 340.041 10.5035 341 10.5C341.959 10.4965 342.783 10.1541 343.473 9.47275Z" fill="black"/>
</svg>
