<svg width="355" height="32" viewBox="0 0 355 32" fill="none" xmlns="http://www.w3.org/2000/svg">
<path d="M8.00004 25.3333H12V17.3333H20V25.3333H24V13.3333L16 7.33333L8.00004 13.3333V25.3333ZM5.33337 28V12L16 4L26.6667 12V28H17.3334V20H14.6667V28H5.33337Z" fill="black"/>
<path d="M132 14C134.387 14 136.676 14.9482 138.364 16.636C140.052 18.3239 141 20.6131 141 23C141 25.3869 140.052 27.6761 138.364 29.364C136.676 31.0518 134.387 32 132 32C129.613 32 127.324 31.0518 125.636 29.364C123.948 27.6761 123 25.3869 123 23C123 20.6131 123.948 18.3239 125.636 16.636C127.324 14.9482 129.613 14 132 14ZM132 18C131.735 18 131.48 18.1054 131.293 18.2929C131.105 18.4804 131 18.7348 131 19V22H128C127.735 22 127.48 22.1054 127.293 22.2929C127.105 22.4804 127 22.7348 127 23C127 23.2652 127.105 23.5196 127.293 23.7071C127.48 23.8946 127.735 24 128 24H131V27C131 27.2652 131.105 27.5196 131.293 27.7071C131.48 27.8946 131.735 28 132 28C132.265 28 132.52 27.8946 132.707 27.7071C132.895 27.5196 133 27.2652 133 27V24H136C136.265 24 136.52 23.8946 136.707 23.7071C136.895 23.5196 137 23.2652 137 23C137 22.7348 136.895 22.4804 136.707 22.2929C136.52 22.1054 136.265 22 136 22H133V19C133 18.7348 132.895 18.4804 132.707 18.2929C132.52 18.1054 132.265 18 132 18ZM123.516 16C121.887 17.9687 120.997 20.4447 121 23C121 23.97 121.124 24.91 121.36 25.804C120.58 25.9359 119.791 26.0014 119 26C116.65 26 114.46 25.456 112.822 24.46C111.182 23.46 110 21.93 110 20C110 18.9391 110.421 17.9217 111.172 17.1716C111.922 16.4214 112.939 16 114 16H123.516ZM119 3C120.459 3 121.858 3.57946 122.889 4.61091C123.921 5.64236 124.5 7.04131 124.5 8.5C124.5 9.95869 123.921 11.3576 122.889 12.3891C121.858 13.4205 120.459 14 119 14C117.541 14 116.142 13.4205 115.111 12.3891C114.079 11.3576 113.5 9.95869 113.5 8.5C113.5 7.04131 114.079 5.64236 115.111 4.61091C116.142 3.57946 117.541 3 119 3ZM132.004 4.994C132.595 4.99347 133.181 5.10955 133.728 5.33558C134.274 5.56162 134.771 5.89318 135.189 6.31131C135.608 6.72944 135.939 7.22593 136.166 7.77239C136.392 8.31884 136.508 8.90455 136.508 9.496C136.508 10.6136 136.09 11.6908 135.336 12.516C134.257 12.1734 133.132 11.9993 132 12C130.869 11.9989 129.744 12.1723 128.666 12.514C128.083 11.8676 127.7 11.0661 127.563 10.2066C127.426 9.34702 127.541 8.46621 127.894 7.67068C128.248 6.87514 128.824 6.19897 129.553 5.72394C130.282 5.24891 131.134 4.99537 132.004 4.994Z" fill="#7EB941"/>
<path d="M236.667 2.66667H226C225.293 2.66667 224.614 2.94762 224.114 3.44772C223.614 3.94781 223.333 4.62609 223.333 5.33333V26.6667C223.333 27.3739 223.614 28.0522 224.114 28.5523C224.614 29.0524 225.293 29.3333 226 29.3333H242C242.707 29.3333 243.385 29.0524 243.886 28.5523C244.386 28.0522 244.667 27.3739 244.667 26.6667V10.6667L236.667 2.66667ZM242 26.6667H226V5.33333H235.333V12H242V26.6667Z" fill="black"/>
<path d="M336.056 11.9437C334.685 10.5729 334 8.925 334 7C334 5.075 334.685 3.42708 336.056 2.05625C337.427 0.685417 339.075 0 341 0C342.925 0 344.573 0.685417 345.944 2.05625C347.315 3.42708 348 5.075 348 7C348 8.925 347.315 10.5729 345.944 11.9437C344.573 13.3146 342.925 14 341 14C339.075 14 337.427 13.3146 336.056 11.9437ZM327 28V23.1C327 22.1083 327.256 21.1972 327.767 20.3665C328.278 19.5358 328.955 18.9012 329.8 18.4625C331.608 17.5583 333.446 16.8805 335.312 16.429C337.179 15.9775 339.075 15.7512 341 15.75C342.925 15.7488 344.821 15.9752 346.687 16.429C348.554 16.8828 350.392 17.5607 352.2 18.4625C353.046 18.9 353.724 19.5347 354.235 20.3665C354.746 21.1983 355.001 22.1095 355 23.1V28H327ZM330.5 24.5H351.5V23.1C351.5 22.7792 351.42 22.4875 351.26 22.225C351.1 21.9625 350.889 21.7583 350.625 21.6125C349.05 20.825 347.46 20.2347 345.856 19.8415C344.252 19.4483 342.633 19.2512 341 19.25C339.367 19.2488 337.748 19.446 336.144 19.8415C334.54 20.237 332.95 20.8273 331.375 21.6125C331.112 21.7583 330.901 21.9625 330.74 22.225C330.579 22.4875 330.499 22.7792 330.5 23.1V24.5ZM343.473 9.47275C344.158 8.78675 344.5 7.9625 344.5 7C344.5 6.0375 344.158 5.21383 343.473 4.529C342.788 3.84417 341.964 3.50117 341 3.5C340.036 3.49883 339.213 3.84183 338.529 4.529C337.845 5.21617 337.502 6.03983 337.5 7C337.498 7.96017 337.841 8.78442 338.529 9.47275C339.217 10.1611 340.041 10.5035 341 10.5C341.959 10.4965 342.783 10.1541 343.473 9.47275Z" fill="black"/>
</svg>
