<svg width="14" height="17" viewBox="0 0 14 17" fill="none" xmlns="http://www.w3.org/2000/svg">
<path d="M1.75 17C1.26875 17 0.856916 16.8337 0.5145 16.501C0.172083 16.1684 0.000583333 15.7681 0 15.3V1.7C0 1.2325 0.1715 0.832433 0.5145 0.4998C0.8575 0.167167 1.26933 0.000566667 1.75 0H12.25C12.7312 0 13.1434 0.1666 13.4864 0.4998C13.8294 0.833 14.0006 1.23307 14 1.7V15.3C14 15.7675 13.8288 16.1678 13.4864 16.501C13.144 16.8342 12.7318 17.0006 12.25 17H1.75ZM6.125 7.65L8.3125 6.375L10.5 7.65V1.7H6.125V7.65Z" fill="#7EB941" fill-opacity="0.43"/>
</svg>
