<svg width="51" height="51" viewBox="0 0 51 51" fill="none" xmlns="http://www.w3.org/2000/svg">
<path d="M12.75 46.75C11.5812 46.75 10.5811 46.3342 9.7495 45.5026C8.91792 44.671 8.50142 43.6702 8.5 42.5V8.5C8.5 7.33125 8.9165 6.33108 9.7495 5.4995C10.5825 4.66792 11.5827 4.25142 12.75 4.25H38.25C39.4188 4.25 40.4196 4.6665 41.2526 5.4995C42.0856 6.3325 42.5014 7.33267 42.5 8.5V42.5C42.5 43.6688 42.0842 44.6696 41.2526 45.5026C40.421 46.3356 39.4202 46.7514 38.25 46.75H12.75ZM23.375 23.375L28.6875 20.1875L34 23.375V8.5H23.375V23.375Z" fill="#9747FF" fill-opacity="0.26"/>
</svg>
