<svg width="28" height="28" viewBox="0 0 28 28" fill="none" xmlns="http://www.w3.org/2000/svg">
<path d="M14 3.5C11.9114 3.5 9.90838 4.32968 8.43153 5.80653C6.95468 7.28338 6.125 9.28642 6.125 11.375V15.5767L4.438 19.8012C4.38516 19.9339 4.3656 20.0775 4.38102 20.2195C4.39644 20.3614 4.44637 20.4975 4.52646 20.6157C4.60654 20.734 4.71435 20.8308 4.84047 20.8978C4.96659 20.9648 5.10719 20.9999 5.25 21H10.5C10.5 22.939 12.061 24.5 14 24.5C15.939 24.5 17.5 22.939 17.5 21H22.75C22.8928 20.9999 23.0334 20.9648 23.1595 20.8978C23.2856 20.8308 23.3934 20.734 23.4735 20.6157C23.5536 20.4975 23.6036 20.3614 23.619 20.2195C23.6344 20.0775 23.6148 19.9339 23.562 19.8012L21.875 15.575V11.375C21.875 9.28642 21.0453 7.28338 19.5685 5.80653C18.0916 4.32968 16.0886 3.5 14 3.5ZM15.75 21C15.75 21.973 14.973 22.75 14 22.75C13.027 22.75 12.25 21.973 12.25 21H15.75ZM7.875 11.375C7.875 9.75055 8.52031 8.19263 9.66897 7.04397C10.8176 5.89531 12.3755 5.25 14 5.25C15.6244 5.25 17.1824 5.89531 18.331 7.04397C19.4797 8.19263 20.125 9.75055 20.125 11.375V15.7465C20.1253 15.8574 20.1467 15.9673 20.188 16.0702L21.4585 19.25H6.5415L7.812 16.0702C7.85333 15.9673 7.87471 15.8574 7.875 15.7465V11.375Z" fill="black"/>
</svg>
