<svg width="66" height="66" viewBox="0 0 66 66" fill="none" xmlns="http://www.w3.org/2000/svg">
<path d="M21.3469 28.1531C18.1156 24.9219 16.5 21.0375 16.5 16.5C16.5 11.9625 18.1156 8.07813 21.3469 4.84688C24.5781 1.61563 28.4625 0 33 0C37.5375 0 41.4219 1.61563 44.6531 4.84688C47.8844 8.07813 49.5 11.9625 49.5 16.5C49.5 21.0375 47.8844 24.9219 44.6531 28.1531C41.4219 31.3844 37.5375 33 33 33C28.4625 33 24.5781 31.3844 21.3469 28.1531ZM0 66V54.45C0 52.1125 0.602251 49.9647 1.80675 48.0067C3.01125 46.0487 4.609 44.5527 6.6 43.5187C10.8625 41.3875 15.1937 39.7897 19.5937 38.7255C23.9937 37.6612 28.4625 37.1278 33 37.125C37.5375 37.1222 42.0062 37.6557 46.4062 38.7255C50.8062 39.7952 55.1375 41.393 59.4 43.5187C61.3937 44.55 62.9929 46.046 64.1974 48.0067C65.4019 49.9675 66.0027 52.1153 66 54.45V66H0Z" fill="black" fill-opacity="0.6"/>
</svg>
