<svg width="21" height="21" viewBox="0 0 21 21" fill="none" xmlns="http://www.w3.org/2000/svg">
<path d="M8.59225 12.4078L20 1M20 1L1.33277 7.74095C1.23347 7.78645 1.14934 7.8595 1.09035 7.95142C1.03136 8.04334 1 8.15026 1 8.25948C1 8.3687 1.03136 8.47562 1.09035 8.56754C1.14934 8.65946 1.23347 8.73251 1.33277 8.77801L8.59225 12.4078L12.222 19.6672C12.2675 19.7665 12.3405 19.8507 12.4325 19.9097C12.5244 19.9686 12.6313 20 12.7405 20C12.8497 20 12.9567 19.9686 13.0486 19.9097C13.1405 19.8507 13.2136 19.7665 13.2591 19.6672L20 1Z" stroke="white" stroke-width="2" stroke-linecap="round" stroke-linejoin="round"/>
</svg>
