<svg width="21" height="21" viewBox="0 0 21 21" fill="none" xmlns="http://www.w3.org/2000/svg">
<path d="M10.1347 14.0625C9.16779 14.0625 8.24045 13.6784 7.55673 12.9947C6.873 12.3109 6.48889 11.3836 6.48889 10.4167C6.48889 9.44973 6.873 8.5224 7.55673 7.83868C8.24045 7.15495 9.16779 6.77084 10.1347 6.77084C11.1017 6.77084 12.029 7.15495 12.7127 7.83868C13.3964 8.5224 13.7806 9.44973 13.7806 10.4167C13.7806 11.3836 13.3964 12.3109 12.7127 12.9947C12.029 13.6784 11.1017 14.0625 10.1347 14.0625ZM17.8743 11.4271C17.916 11.0938 17.9472 10.7604 17.9472 10.4167C17.9472 10.0729 17.916 9.72917 17.8743 9.375L20.0722 7.67709C20.2701 7.52084 20.3222 7.23959 20.1972 7.01042L18.1139 3.40625C17.9889 3.17709 17.7076 3.08334 17.4785 3.17709L14.8847 4.21875C14.3431 3.8125 13.7806 3.45834 13.1243 3.19792L12.7389 0.437502C12.7177 0.314811 12.6538 0.203572 12.5585 0.123493C12.4632 0.0434144 12.3426 -0.000333098 12.2181 1.90986e-06H8.05139C7.79097 1.90986e-06 7.57222 0.187502 7.53055 0.437502L7.14514 3.19792C6.48889 3.45834 5.92639 3.8125 5.38472 4.21875L2.79097 3.17709C2.5618 3.08334 2.28055 3.17709 2.15555 3.40625L0.0722204 7.01042C-0.0631963 7.23959 -0.000696148 7.52084 0.197221 7.67709L2.39514 9.375C2.35347 9.72917 2.32222 10.0729 2.32222 10.4167C2.32222 10.7604 2.35347 11.0938 2.39514 11.4271L0.197221 13.1563C-0.000696148 13.3125 -0.0631963 13.5938 0.0722204 13.8229L2.15555 17.4271C2.28055 17.6563 2.5618 17.7396 2.79097 17.6563L5.38472 16.6042C5.92639 17.0208 6.48889 17.375 7.14514 17.6354L7.53055 20.3958C7.57222 20.6458 7.79097 20.8333 8.05139 20.8333H12.2181C12.4785 20.8333 12.6972 20.6458 12.7389 20.3958L13.1243 17.6354C13.7806 17.3646 14.3431 17.0208 14.8847 16.6042L17.4785 17.6563C17.7076 17.7396 17.9889 17.6563 18.1139 17.4271L20.1972 13.8229C20.3222 13.5938 20.2701 13.3125 20.0722 13.1563L17.8743 11.4271Z" fill="black"/>
</svg>
