<svg width="11" height="11" viewBox="0 0 11 11" fill="none" xmlns="http://www.w3.org/2000/svg">
<path d="M1.375 8.47925V2.29175C1.375 1.92708 1.51987 1.57734 1.77773 1.31948C2.03559 1.06161 2.38533 0.916748 2.75 0.916748H9.16667C9.28822 0.916748 9.4048 0.965037 9.49076 1.05099C9.57671 1.13694 9.625 1.25352 9.625 1.37508V9.62508C9.625 9.74664 9.57671 9.86322 9.49076 9.94917C9.4048 10.0351 9.28822 10.0834 9.16667 10.0834H2.97917C2.55372 10.0834 2.14569 9.9144 1.84485 9.61357C1.54401 9.31273 1.375 8.9047 1.375 8.47925ZM8.70833 9.16675V7.79175H2.97917C2.79683 7.79175 2.62196 7.86418 2.49303 7.99311C2.3641 8.12204 2.29167 8.29691 2.29167 8.47925C2.29167 8.66158 2.3641 8.83645 2.49303 8.96538C2.62196 9.09431 2.79683 9.16675 2.97917 9.16675H8.70833ZM2.29167 7.02954C2.50655 6.92774 2.74138 6.87498 2.97917 6.87508H8.70833V1.83341H2.75C2.62844 1.83341 2.51186 1.8817 2.42591 1.96766C2.33996 2.05361 2.29167 2.17019 2.29167 2.29175V7.02954Z" fill="black" fill-opacity="0.6"/>
</svg>
