<svg width="11" height="11" viewBox="0 0 11 11" fill="none" xmlns="http://www.w3.org/2000/svg">
<g clip-path="url(#clip0_48_505)">
<path d="M5.49984 9.16675C6.4723 9.16675 7.40493 8.78044 8.09256 8.09281C8.7802 7.40517 9.1665 6.47254 9.1665 5.50008C9.1665 4.52762 8.7802 3.59499 8.09256 2.90736C7.40493 2.21972 6.4723 1.83341 5.49984 1.83341C4.52738 1.83341 3.59475 2.21972 2.90711 2.90736C2.21948 3.59499 1.83317 4.52762 1.83317 5.50008C1.83317 6.47254 2.21948 7.40517 2.90711 8.09281C3.59475 8.78044 4.52738 9.16675 5.49984 9.16675ZM5.49984 0.916748C6.10173 0.916748 6.69773 1.0353 7.2538 1.26563C7.80988 1.49597 8.31514 1.83357 8.74074 2.25918C9.16635 2.68478 9.50395 3.19004 9.73429 3.74612C9.96462 4.30219 10.0832 4.89819 10.0832 5.50008C10.0832 6.71566 9.60029 7.88145 8.74074 8.74099C7.8812 9.60053 6.71541 10.0834 5.49984 10.0834C2.96525 10.0834 0.916504 8.02092 0.916504 5.50008C0.916504 4.28451 1.39939 3.11872 2.25893 2.25918C3.11847 1.39963 4.28426 0.916748 5.49984 0.916748ZM5.729 3.20841V5.61467L7.7915 6.83841L7.44775 7.40216L5.0415 5.95842V3.20841H5.729Z" fill="black" fill-opacity="0.6"/>
</g>
<defs>
<clipPath id="clip0_48_505">
<rect width="11" height="11" fill="white"/>
</clipPath>
</defs>
</svg>
