<svg width="12" height="12" viewBox="0 0 12 12" fill="none" xmlns="http://www.w3.org/2000/svg">
<path d="M2.57136 5.35707C2.57136 5.07291 2.68424 4.80039 2.88517 4.59946C3.0861 4.39853 3.35863 4.28564 3.64279 4.28564C3.92695 4.28564 4.19947 4.39853 4.4004 4.59946C4.60133 4.80039 4.71422 5.07291 4.71422 5.35707C4.71422 5.64123 4.60133 5.91376 4.4004 6.11469C4.19947 6.31562 3.92695 6.4285 3.64279 6.4285C3.35863 6.4285 3.0861 6.31562 2.88517 6.11469C2.68424 5.91376 2.57136 5.64123 2.57136 5.35707ZM3.64279 4.9285C3.52912 4.9285 3.42011 4.97365 3.33974 5.05403C3.25937 5.1344 3.21422 5.24341 3.21422 5.35707C3.21422 5.47074 3.25937 5.57975 3.33974 5.66012C3.42011 5.74049 3.52912 5.78564 3.64279 5.78564C3.75645 5.78564 3.86546 5.74049 3.94583 5.66012C4.02621 5.57975 4.07136 5.47074 4.07136 5.35707C4.07136 5.24341 4.02621 5.1344 3.94583 5.05403C3.86546 4.97365 3.75645 4.9285 3.64279 4.9285ZM3.64279 7.28564C3.35863 7.28564 3.0861 7.39853 2.88517 7.59946C2.68424 7.80039 2.57136 8.07291 2.57136 8.35707C2.57136 8.64123 2.68424 8.91376 2.88517 9.11469C3.0861 9.31562 3.35863 9.4285 3.64279 9.4285C3.92695 9.4285 4.19947 9.31562 4.4004 9.11469C4.60133 8.91376 4.71422 8.64123 4.71422 8.35707C4.71422 8.07291 4.60133 7.80039 4.4004 7.59946C4.19947 7.39853 3.92695 7.28564 3.64279 7.28564ZM3.21422 8.35707C3.21422 8.24341 3.25937 8.1344 3.33974 8.05403C3.42011 7.97365 3.52912 7.9285 3.64279 7.9285C3.75645 7.9285 3.86546 7.97365 3.94583 8.05403C4.02621 8.1344 4.07136 8.24341 4.07136 8.35707C4.07136 8.47074 4.02621 8.57975 3.94583 8.66012C3.86546 8.74049 3.75645 8.78564 3.64279 8.78564C3.52912 8.78564 3.42011 8.74049 3.33974 8.66012C3.25937 8.57975 3.21422 8.47074 3.21422 8.35707ZM5.57136 5.24993C5.57136 5.16468 5.60522 5.08293 5.6655 5.02265C5.72578 4.96237 5.80754 4.9285 5.89279 4.9285H9.10707C9.19232 4.9285 9.27408 4.96237 9.33436 5.02265C9.39464 5.08293 9.4285 5.16468 9.4285 5.24993C9.4285 5.33518 9.39464 5.41693 9.33436 5.47721C9.27408 5.53749 9.19232 5.57136 9.10707 5.57136H5.89279C5.80754 5.57136 5.72578 5.53749 5.6655 5.47721C5.60522 5.41693 5.57136 5.33518 5.57136 5.24993ZM5.89279 7.9285C5.80754 7.9285 5.72578 7.96237 5.6655 8.02265C5.60522 8.08293 5.57136 8.16468 5.57136 8.24993C5.57136 8.33518 5.60522 8.41694 5.6655 8.47721C5.72578 8.53749 5.80754 8.57136 5.89279 8.57136H9.10707C9.19232 8.57136 9.27408 8.53749 9.33436 8.47721C9.39464 8.41694 9.4285 8.33518 9.4285 8.24993C9.4285 8.16468 9.39464 8.08293 9.33436 8.02265C9.27408 7.96237 9.19232 7.9285 9.10707 7.9285H5.89279ZM2.57136 3.10707C2.57136 3.02182 2.60522 2.94007 2.6655 2.87979C2.72578 2.81951 2.80754 2.78564 2.89279 2.78564H9.10707C9.19232 2.78564 9.27408 2.81951 9.33436 2.87979C9.39464 2.94007 9.4285 3.02182 9.4285 3.10707C9.4285 3.19232 9.39464 3.27408 9.33436 3.33436C9.27408 3.39464 9.19232 3.4285 9.10707 3.4285H2.89279C2.80754 3.4285 2.72578 3.39464 2.6655 3.33436C2.60522 3.27408 2.57136 3.19232 2.57136 3.10707ZM2.89279 1.28564C2.46655 1.28564 2.05776 1.45497 1.75637 1.75637C1.45497 2.05776 1.28564 2.46655 1.28564 2.89279V9.10707C1.28564 9.53331 1.45497 9.9421 1.75637 10.2435C2.05776 10.5449 2.46655 10.7142 2.89279 10.7142H9.10707C9.53331 10.7142 9.9421 10.5449 10.2435 10.2435C10.5449 9.9421 10.7142 9.53331 10.7142 9.10707V2.89279C10.7142 2.46655 10.5449 2.05776 10.2435 1.75637C9.9421 1.45497 9.53331 1.28564 9.10707 1.28564H2.89279ZM1.9285 2.89279C1.9285 2.63704 2.0301 2.39177 2.21093 2.21093C2.39177 2.0301 2.63704 1.9285 2.89279 1.9285H9.10707C9.36282 1.9285 9.60809 2.0301 9.78893 2.21093C9.96976 2.39177 10.0714 2.63704 10.0714 2.89279V9.10707C10.0714 9.36282 9.96976 9.60809 9.78893 9.78893C9.60809 9.96976 9.36282 10.0714 9.10707 10.0714H2.89279C2.63704 10.0714 2.39177 9.96976 2.21093 9.78893C2.0301 9.60809 1.9285 9.36282 1.9285 9.10707V2.89279Z" fill="black" fill-opacity="0.6"/>
</svg>
