<svg width="33" height="33" viewBox="0 0 33 33" fill="none" xmlns="http://www.w3.org/2000/svg">
<path d="M18.1502 6.6002C18.1502 5.68754 17.4129 4.9502 16.5002 4.9502C15.5875 4.9502 14.8502 5.68754 14.8502 6.6002V14.8502H6.6002C5.68754 14.8502 4.9502 15.5875 4.9502 16.5002C4.9502 17.4129 5.68754 18.1502 6.6002 18.1502H14.8502V26.4002C14.8502 27.3129 15.5875 28.0502 16.5002 28.0502C17.4129 28.0502 18.1502 27.3129 18.1502 26.4002V18.1502H26.4002C27.3129 18.1502 28.0502 17.4129 28.0502 16.5002C28.0502 15.5875 27.3129 14.8502 26.4002 14.8502H18.1502V6.6002Z" fill="#D9D9D9"/>
</svg>
