<svg width="43" height="43" viewBox="0 0 43 43" fill="none" xmlns="http://www.w3.org/2000/svg">
<path d="M23.65 8.6002C23.65 7.41098 22.6892 6.4502 21.5 6.4502C20.3107 6.4502 19.35 7.41098 19.35 8.6002V19.3502H8.59995C7.41073 19.3502 6.44995 20.311 6.44995 21.5002C6.44995 22.6894 7.41073 23.6502 8.59995 23.6502H19.35V34.4002C19.35 35.5894 20.3107 36.5502 21.5 36.5502C22.6892 36.5502 23.65 35.5894 23.65 34.4002V23.6502H34.4C35.5892 23.6502 36.55 22.6894 36.55 21.5002C36.55 20.311 35.5892 19.3502 34.4 19.3502H23.65V8.6002Z" fill="#7EB941"/>
</svg>
