<svg width="11" height="11" viewBox="0 0 11 11" fill="none" xmlns="http://www.w3.org/2000/svg">
<path d="M8.63685 3.60938C8.5739 4.48314 7.92572 5.15625 7.21888 5.15625C6.51205 5.15625 5.86279 4.48336 5.80092 3.60938C5.73646 2.70037 6.36746 2.0625 7.21888 2.0625C8.07031 2.0625 8.70131 2.71691 8.63685 3.60938Z" stroke="black" stroke-opacity="0.6" stroke-linecap="round" stroke-linejoin="round"/>
<path d="M7.21866 6.53125C5.81853 6.53125 4.4721 7.2267 4.1348 8.58107C4.09011 8.76025 4.20247 8.9375 4.38659 8.9375H10.0509C10.2351 8.9375 10.3468 8.76025 10.3027 8.58107C9.96544 7.205 8.61902 6.53125 7.21866 6.53125Z" stroke="black" stroke-opacity="0.6" stroke-miterlimit="10"/>
<path d="M4.29702 3.9948C4.24675 4.69262 3.72296 5.24219 3.15835 5.24219C2.59374 5.24219 2.06909 4.69283 2.01968 3.9948C1.96833 3.26885 2.47815 2.75 3.15835 2.75C3.83854 2.75 4.34837 3.28217 4.29702 3.9948Z" stroke="black" stroke-opacity="0.6" stroke-linecap="round" stroke-linejoin="round"/>
<path d="M4.42599 6.57412C4.0382 6.39645 3.61109 6.32812 3.15841 6.32812C2.04123 6.32812 0.964859 6.8835 0.69523 7.96523C0.65978 8.10832 0.749585 8.2499 0.896538 8.2499H3.3088" stroke="black" stroke-opacity="0.6" stroke-miterlimit="10" stroke-linecap="round"/>
</svg>
