<svg width="24" height="24" viewBox="0 0 24 24" fill="none" xmlns="http://www.w3.org/2000/svg">
<path d="M14.59 6.58988C13.81 7.36988 13.81 8.63988 14.59 9.41988C15.37 10.1999 16.64 10.1999 17.42 9.41988C18.2 8.63988 18.2 7.36988 17.42 6.58988C16.64 5.80988 15.37 5.80988 14.59 6.58988ZM5 15.9999C3 16.9999 3 20.9999 3 20.9999C3 20.9999 6 20.9999 8 18.9999L5 15.9999Z" fill="#7EB941"/>
<path d="M21.0002 2H17.3102C14.9102 2 12.6502 2.94 10.9502 4.64L8.69024 6.9C6.52418 6.48796 4.28295 6.94411 2.45024 8.17C2.20024 8.34 2.04024 8.61 2.01024 8.9C1.98024 9.19 2.09024 9.49 2.30024 9.71L14.3002 21.71C14.5002 21.91 14.7502 22 15.0102 22C15.2702 22 15.5202 21.9 15.7202 21.71C17.6202 19.81 17.3202 16.63 17.1002 15.33L19.3802 13.05C21.0802 11.35 22.0202 9.09 22.0202 6.69V3C22.0202 2.45 21.5702 2 21.0202 2H21.0002ZM20.0002 6.69C20.0002 8.56 19.2702 10.32 17.9502 11.64L15.2902 14.3C15.0402 14.55 14.9402 14.91 15.0302 15.25C15.2202 16.04 15.4802 18.03 14.8602 19.45L4.65024 9.24C6.76024 8.35 8.59024 8.92 8.68024 8.95C9.04024 9.07 9.44024 8.98 9.70024 8.71L12.3602 6.05C13.009 5.39823 13.7805 4.88148 14.6301 4.52961C15.4797 4.17775 16.3906 3.99774 17.3102 4H20.0002V6.69Z" fill="#7EB941"/>
</svg>
