<svg width="16" height="16" viewBox="0 0 16 16" fill="none" xmlns="http://www.w3.org/2000/svg">
<path d="M3.42864 7.14293C3.42864 6.76405 3.57915 6.40068 3.84706 6.13277C4.11497 5.86486 4.47833 5.71436 4.85721 5.71436C5.23609 5.71436 5.59946 5.86486 5.86736 6.13277C6.13527 6.40068 6.28578 6.76405 6.28578 7.14293C6.28578 7.52181 6.13527 7.88517 5.86736 8.15308C5.59946 8.42099 5.23609 8.5715 4.85721 8.5715C4.47833 8.5715 4.11497 8.42099 3.84706 8.15308C3.57915 7.88517 3.42864 7.52181 3.42864 7.14293ZM4.85721 6.5715C4.70566 6.5715 4.56032 6.6317 4.45315 6.73887C4.34599 6.84603 4.28578 6.99137 4.28578 7.14293C4.28578 7.29448 4.34599 7.43982 4.45315 7.54699C4.56032 7.65415 4.70566 7.71435 4.85721 7.71435C5.00876 7.71435 5.15411 7.65415 5.26127 7.54699C5.36844 7.43982 5.42864 7.29448 5.42864 7.14293C5.42864 6.99137 5.36844 6.84603 5.26127 6.73887C5.15411 6.6317 5.00876 6.5715 4.85721 6.5715ZM4.85721 9.71435C4.47833 9.71435 4.11497 9.86486 3.84706 10.1328C3.57915 10.4007 3.42864 10.764 3.42864 11.1429C3.42864 11.5218 3.57915 11.8852 3.84706 12.1531C4.11497 12.421 4.47833 12.5715 4.85721 12.5715C5.23609 12.5715 5.59946 12.421 5.86736 12.1531C6.13527 11.8852 6.28578 11.5218 6.28578 11.1429C6.28578 10.764 6.13527 10.4007 5.86736 10.1328C5.59946 9.86486 5.23609 9.71435 4.85721 9.71435ZM4.28578 11.1429C4.28578 10.9914 4.34599 10.846 4.45315 10.7389C4.56032 10.6317 4.70566 10.5715 4.85721 10.5715C5.00876 10.5715 5.15411 10.6317 5.26127 10.7389C5.36844 10.846 5.42864 10.9914 5.42864 11.1429C5.42864 11.2945 5.36844 11.4398 5.26127 11.547C5.15411 11.6542 5.00876 11.7144 4.85721 11.7144C4.70566 11.7144 4.56032 11.6542 4.45315 11.547C4.34599 11.4398 4.28578 11.2945 4.28578 11.1429ZM7.42864 7.00007C7.42864 6.88641 7.47379 6.7774 7.55417 6.69702C7.63454 6.61665 7.74355 6.5715 7.85721 6.5715H12.1429C12.2566 6.5715 12.3656 6.61665 12.446 6.69702C12.5263 6.7774 12.5715 6.88641 12.5715 7.00007C12.5715 7.11373 12.5263 7.22274 12.446 7.30311C12.3656 7.38349 12.2566 7.42864 12.1429 7.42864H7.85721C7.74355 7.42864 7.63454 7.38349 7.55417 7.30311C7.47379 7.22274 7.42864 7.11373 7.42864 7.00007ZM7.85721 10.5715C7.74355 10.5715 7.63454 10.6167 7.55417 10.697C7.47379 10.7774 7.42864 10.8864 7.42864 11.0001C7.42864 11.1137 7.47379 11.2227 7.55417 11.3031C7.63454 11.3835 7.74355 11.4286 7.85721 11.4286H12.1429C12.2566 11.4286 12.3656 11.3835 12.446 11.3031C12.5263 11.2227 12.5715 11.1137 12.5715 11.0001C12.5715 10.8864 12.5263 10.7774 12.446 10.697C12.3656 10.6167 12.2566 10.5715 12.1429 10.5715H7.85721ZM3.42864 4.14293C3.42864 4.02926 3.47379 3.92025 3.55417 3.83988C3.63454 3.75951 3.74355 3.71436 3.85721 3.71436H12.1429C12.2566 3.71436 12.3656 3.75951 12.446 3.83988C12.5263 3.92025 12.5715 4.02926 12.5715 4.14293C12.5715 4.25659 12.5263 4.3656 12.446 4.44597C12.3656 4.52635 12.2566 4.5715 12.1429 4.5715H3.85721C3.74355 4.5715 3.63454 4.52635 3.55417 4.44597C3.47379 4.3656 3.42864 4.25659 3.42864 4.14293ZM3.85721 1.71436C3.28889 1.71436 2.74385 1.94012 2.34198 2.34198C1.94012 2.74385 1.71436 3.28889 1.71436 3.85721V12.1429C1.71436 12.7112 1.94012 13.2563 2.34198 13.6582C2.74385 14.06 3.28889 14.2858 3.85721 14.2858H12.1429C12.7112 14.2858 13.2563 14.06 13.6582 13.6582C14.06 13.2563 14.2858 12.7112 14.2858 12.1429V3.85721C14.2858 3.28889 14.06 2.74385 13.6582 2.34198C13.2563 1.94012 12.7112 1.71436 12.1429 1.71436H3.85721ZM2.5715 3.85721C2.5715 3.51622 2.70696 3.18919 2.94808 2.94808C3.18919 2.70696 3.51622 2.5715 3.85721 2.5715H12.1429C12.4839 2.5715 12.8109 2.70696 13.0521 2.94808C13.2932 3.18919 13.4286 3.51622 13.4286 3.85721V12.1429C13.4286 12.4839 13.2932 12.8109 13.0521 13.0521C12.8109 13.2932 12.4839 13.4286 12.1429 13.4286H3.85721C3.51622 13.4286 3.18919 13.2932 2.94808 13.0521C2.70696 12.8109 2.5715 12.4839 2.5715 12.1429V3.85721Z" fill="black"/>
</svg>
