<svg width="17" height="17" viewBox="0 0 17 17" fill="none" xmlns="http://www.w3.org/2000/svg">
<path d="M13.4584 2.83317H12.0417V2.12484C12.0417 1.93698 11.9671 1.75681 11.8343 1.62397C11.7014 1.49113 11.5213 1.4165 11.3334 1.4165C11.1456 1.4165 10.9654 1.49113 10.8325 1.62397C10.6997 1.75681 10.6251 1.93698 10.6251 2.12484V2.83317H6.37508V2.12484C6.37508 1.93698 6.30045 1.75681 6.16762 1.62397C6.03478 1.49113 5.85461 1.4165 5.66675 1.4165C5.47889 1.4165 5.29872 1.49113 5.16588 1.62397C5.03304 1.75681 4.95842 1.93698 4.95842 2.12484V2.83317H3.54175C2.97816 2.83317 2.43766 3.05705 2.03915 3.45557C1.64063 3.85408 1.41675 4.39459 1.41675 4.95817V13.4582C1.41675 14.0218 1.64063 14.5623 2.03915 14.9608C2.43766 15.3593 2.97816 15.5832 3.54175 15.5832H13.4584C14.022 15.5832 14.5625 15.3593 14.961 14.9608C15.3595 14.5623 15.5834 14.0218 15.5834 13.4582V4.95817C15.5834 4.39459 15.3595 3.85408 14.961 3.45557C14.5625 3.05705 14.022 2.83317 13.4584 2.83317ZM14.1667 13.4582C14.1667 13.646 14.0921 13.8262 13.9593 13.959C13.8264 14.0919 13.6463 14.1665 13.4584 14.1665H3.54175C3.35389 14.1665 3.17372 14.0919 3.04088 13.959C2.90804 13.8262 2.83341 13.646 2.83341 13.4582V8.49984H14.1667V13.4582ZM14.1667 7.08317H2.83341V4.95817C2.83341 4.77031 2.90804 4.59014 3.04088 4.4573C3.17372 4.32447 3.35389 4.24984 3.54175 4.24984H4.95842V4.95817C4.95842 5.14603 5.03304 5.3262 5.16588 5.45904C5.29872 5.59188 5.47889 5.6665 5.66675 5.6665C5.85461 5.6665 6.03478 5.59188 6.16762 5.45904C6.30045 5.3262 6.37508 5.14603 6.37508 4.95817V4.24984H10.6251V4.95817C10.6251 5.14603 10.6997 5.3262 10.8325 5.45904C10.9654 5.59188 11.1456 5.6665 11.3334 5.6665C11.5213 5.6665 11.7014 5.59188 11.8343 5.45904C11.9671 5.3262 12.0417 5.14603 12.0417 4.95817V4.24984H13.4584C13.6463 4.24984 13.8264 4.32447 13.9593 4.4573C14.0921 4.59014 14.1667 4.77031 14.1667 4.95817V7.08317Z" fill="black"/>
</svg>
